<svg id="eUDfsIc2Y051" xmlns="http://www.w3.org/2000/svg" xmlns:xlink="http://www.w3.org/1999/xlink" viewBox="0 0 1024 1024" shape-rendering="geometricPrecision" text-rendering="geometricPrecision" project-id="d798bb970f8f40b18c409f20fae5317e" export-id="483769b4ab38415a9be1a88de448d8f4" cached="false"><path d="M522.112305,451.082306c-15.370026-5.573303-31.294953-6.499329-46.727112-9.789826-17.182068-3.663604-34.605042-4.555664-52.084076-4.998901-.953949-.0242-2.034149.114105-2.865143-1.281769c1.374664-3.5914,4.922333-4.416412,8.108765-5.316864c11.883758-3.358215,23.177551-8.34079,34.795227-12.425873c19.250519-6.76889,37.166992-16.37799,54.307007-27.344329c7.326416-4.6875,15.260864-8.171082,22.636657-12.732087c11.516785-7.121673,21.093689-16.196655,28.97937-27.135467c1.346131-1.867371,2.497864-3.921204,4.722962-4.901733c10.58844,9.396118,16.801758,10.228607,29.834717,3.693267c5.906067-2.961639,11.630371-6.285827,17.158264-9.293823-.095886-2.394501-1.500733-2.937378-2.600586-3.484436-9.237183-4.594055-17.723755-10.785583-27.626587-13.912048-8.336853-2.63205-14.685364-7.597382-18.190613-15.280274-4.651855-10.196319-11.330688-17.199768-22.706787-19.287231-3.197754-.586792-5.843017-3.157593-9.106445-3.575287-2.327942.811218-.611756,3.666046-2.870484,4.702087-2.14331-.844329-2.55426-3.030487-3.2052-5.012847-1.662048-5.061799-3.282959-10.137024-4.93396-15.202454-3.142517-9.641846-11.42334-14.668976-18.261139-21.118439-6.243835,7.96167-6.326446,13.882599-.722473,21.058441c2.816376,3.606385,6.675324,6.608246,7.175019,11.921173-5.094422,2.730011-10.79889,4.36081-15.086335,8.455628-6.620086,6.322632-6.112243,10.245117,1.920502,14.481872c4.751617,2.506226,9.907288,3.862305,15.01947,5.381775c3.982422,1.183716,7.947205,2.506684,11.770386,4.121491c2.984436,1.260498,5.739258,3.064575,9.891174,5.335449-5.27301,1.262329-9.192016,2.315125-13.161194,3.120636-4.572082.927856-9.154419,1.754639-13.475647,3.609955-1.70166.730591-3.263214,1.593231-4.513153,3.027466-5.40628,6.203399-4.617157,9.272003,3.217621,11.69162c5.089173,1.571685,10.27594,2.828674,15.357727,4.422271c1.950745.611786,4.279358.996033,5.16272,3.682434-6.168823,1.586396-12.173828,3.463959-18.313538,4.637238-11.292846,2.158142-20.318451,8.381927-29.634887,14.641022-16.306519,10.95523-33.217408,21.011108-49.881653,31.433197-1.510468.944671-2.968506,2.169311-5.643891,1.353515c2.306122-7.859619,4.570008-15.602447,6.850525-23.340332c2.462891-8.356506,3.790406-16.844818,3.501526-25.598449-.139343-4.221985-1.485687-7.847626-4.231384-10.928528-9.022095-10.123535-18.979553-18.794068-33.225861-20.40149-3.862091-.43573-6.80841-2.395599-9.549286-4.969635-5.531311-5.194549-11.093292-10.367157-17.724273-14.695709-2.534668,5.372132-1.928162,10.666229-1.631439,16.40918-11.271058-2.376068-18.044007,4.561523-24.594971,11.823608-1.739807,1.92865-3.638489,3.563904-6.18808,3.942688-9.088867,1.350251-14.083282,7.735779-16.969543,15.31781-4.279725,11.242493-9.026154,22.19574-14.855561,32.699982-3.069763,5.531525-1.293091,10.22522,2.566437,14.570038c6.423584,7.23114,6.426483,7.875061-1.234161,14.020111-4.121949,3.306519-6.213318,7.779419-7.817993,12.53067-1.100464,3.258484-3.079804,4.82251-6.465973,5.272217-5.105439.678101-10.176148,1.644409-15.239106,2.60672-3.238678.6156-4.956726-.041474-5.097412-3.863587-1.401214-38.070068,3.12732-75.28009,18.708832-110.280212c12.317993-27.669525,28.695221-52.845337,50.2565-74.59671c23.353363-23.55922,50.144623-41.701126,80.807312-54.040085c19.349274-7.786346,39.440094-12.979263,60.209076-15.723816c12.250763-1.618912,24.498169-2.969849,36.80835-2.636963c37.57196,1.01593,73.522888,8.951019,107.199036,26.131211c38.937194,19.864105,70.030639,48.520614,93.342834,85.252502c18.089783,28.503052,31.779541,59.333252,35.437927,93.129608c5.835083,53.903717.270691,106.15802-29.152221,153.597443-3.325745,5.362182-7.039795,10.48352-10.962342,16.29187-6.984924-5.750427-14.647949-10.083313-21.644165-15.329407-28.539123-21.400116-60.434814-36.43988-93.473755-49.145325-22.365112-8.600708-45.05188-16.402648-68.2005-22.726593-5.133118-1.402343-10.326111-2.585327-15.877014-3.995666M667.580872,247.940811c-20.922852-19.765121-45.360047-33.487533-72.439759-42.99675-18.497925-6.495636-37.336181-11.180877-56.867431-12.510513-37.919312-2.581467-74.375885,3.942764-108.997071,19.543579-41.776642,18.82518-74.356628,48.126144-97.372528,87.846512-3.280731,5.661835-6.179077,11.585449-7.432159,19.197998c10.813263-4.185669,20.093414-8.8508,26.840942-17.317688c4.664948-5.853668,8.747742-12.171143,13.409729-18.027405c5.318909-6.681457,7.670929-6.940887,14.594757-1.884064c7.527771,5.497925,14.882233,11.223938,22.677857,16.361481c4.402405,2.901306,8.447601,3.154785,12.966461.239411c5.451935-3.517395,10.983032-7.34134,17.313995-8.731446c6.422455-1.410278,9.61435-5.292968,11.786804-10.833496.728211-1.857178,1.911042-3.566925,2.433869-5.468414c2.279877-8.292084,7.66626-14.136658,14.191376-19.369385c3.048645-2.444839,5.758361-3.211761,9.554901-2.197739c10.453155,2.791932,12.205536,1.871857,18.642914-7.169754c3.956115-5.556518,8.005554-11.090622,12.498291-16.208877c4.660492-5.309281,7.380096-5.845474,12.961456-1.7323c12.333313,9.08902,24.969849,18.198624,30.372558,33.498734c2.83252,8.021484,7.754944,12.11557,16.362122,12.654022c7.425476.464477,13.090942,4.451233,16.782227,11.07782c2.429687,4.361786,5.080322,8.600525,7.506836,12.963989c2.444152,4.395203,6.137878,6.85614,11.016967,7.768127c3.628235.678192,7.151062,1.778748,10.154724,3.985443c8.98407,6.600403,19.398316,10.22226,29.564454,14.367493c2.25708.920288,4.560791.935974,6.815857.018585c4.313232-1.754669,8.81018-3.195862,12.847229-5.453308c4.266113-2.385498,7.241516-1.860138,10.403259,1.810974c12.366272,14.358521,28.497741,23.911194,44.185852,33.975373c4.202087,2.695678,9.003479,4.285431,13.877563,5.507965c6.562867,1.646087,7.288697.817444,5.805298-5.861115-3.896728-17.543426-11.01001-33.776062-19.390869-49.586059-11.031616-20.810425-25.000977-39.262787-43.068481-55.469193m45.090637,127.029465c-3.948059-1.27887-7.317078-4.348969-11.638123-4.361084-1.201782,2.83493,1.317505,4.878967.362244,7.247894-2.153015-.079132-2.578674-1.977814-3.556641-3.187256-5.003723-6.18811-8.744201-13.421783-15.488342-18.161041-7.770386-5.460449-15.288269-11.266022-22.342835-17.630524-2.693664-2.430206-4.630798-1.798492-6.640136.75998-4.771424,6.075317-4.480591,11.48526,1.090393,17.94989c2.197388,2.549804,4.961181,4.791351,4.908447,8.907043-3.384338-.593475-5.6474-2.8255-8.717285-3.216064-8.805115-1.120209-17.577698-1.477417-26.362061.04306-14.149658,2.449158-25.915039,8.450348-32.617248,21.960907-1.237793,2.49527-2.574097,4.982513-1.448059,8.669861c10.228637-1.568085,19.543823-5.060822,28.549621-10.633209c1.260376,5.694976,5.145142,7.320221,10.050599,7.60437c2.820678.16336,5.652771.427978,8.432434.91629c2.657775.466888,5.594909.163208,8.381347,2.511444-3.79071,4.933502-7.846313,9.122376-13.179138,12.073059-5.2724,2.917237-10.244263,6.295075-14.021728,11.092682-3.17334,4.030426-2.773621,6.643616,1.442627,9.60553c4.1557,2.919372,8.959289,4.310425,13.807922,5.614166c2.773926.74588,5.827759.935364,8.307373,2.965759-.911133,2.190796-2.800232,2.786469-4.136658,3.938202-5.831421,5.025208-8.73114,14.229401-5.046325,18.652924c8.936767,10.728363,22.34143,14.105041,34.264099,20.249176-1.24823-5.309448-3.217408-9.977295-4.827088-14.765991-2.425293-7.214691-2.259094-14.432831.998535-21.394043c1.050354-2.244568,2.379212-4.887512,5.115479-5.013092c2.974121-.136475,3.905151,2.801483,4.897766,5.022522c5.411987,12.109588,13.576904,22.063904,23.589966,30.617431c7.559448,6.45752,15.704834,12.067627,24.609436,17.894562c2.483215-10.928345-4.562805-18.900665-5.929443-28.05603-1.423645-9.537262-5.817749-18.069122-10.058167-26.857971c4.955322-1.774109,7.823486,2.272186,11.990723,2.191101-1.510498-7.113983-5.896851-12.667603-8.866089-19.288025c3.959717-.469238,6.108642,1.496277,8.440368,2.970886c4.64209,2.935547,9.251893,5.924011,13.940369,8.783478c2.829712,1.725738,4.733948,1.19342,5.041931-2.483124.110962-1.324097.557495-2.633179.565064-3.950745.06726-11.662902.019653-23.32669.126526-34.989105.027954-3.043762-1.640381-4.474823-4.119385-5.547577-6.417847-2.777191-12.808777-5.616638-19.918518-8.707336Z" transform="translate(-1.644078 0)" fill="#1939bd"/><path d="M566.839233,529.191284c-24.581482-11.22168-49.03424-21.761596-74.150726-30.704315-22.597137-8.045746-45.731384-14.339569-68.713074-21.130707-17.277038-5.105408-34.958954-8.354126-52.697509-11.304321-15.116761-2.51413-30.360627-4.386688-45.658204-4.49643-12.812255-.091918-25.578277-2.195007-38.414337-.768951-3.447052.382996-3.594055-2.75766-3.951751-4.747223-.664307-3.694794-4.02768-7.359527-1.055909-11.154449.759735-.970154,3.132691-.990326,4.745209-.930268c14.307037.533081,28.579865-2.44339,42.90213-.409301.927582.131744,1.926239-.237061,3.23877-.421875-.01004-3.371094-2.196503-5.222413-4.157013-7.137848-2.968964-2.900605-2.721985-5.290314.655762-7.760773c6.926513-5.066071,12.188385-11.822815,17.451904-18.440979c3.402954-4.278717,3.772583-9.842987,3.568756-15.268402-.075562-2.011932-1.077606-3.061554-3.115509-3.087952-1.832947-.023712-3.667328-.022186-5.498261-.098785-3.514984-.147003-6.088775-2.22287-6.108886-5.441406-.053559-8.554688-2.482849-17.24115.912109-25.66565.539917-1.339691.146454-2.605713.042206-3.924103-.317169-4.011474-.998169-8.514129,3.201202-10.792511c4.581177-2.485504,9.611542-2.375183,14.353058.190552.845947.457703,1.58255,1.117432,2.50531,1.781494c1.993653-1.579742,3.101471-3.119812,1.936859-5.593506-2.309967-4.906402,1.462647-11.61618,6.757386-11.72113c3.550048-.070373,6.937835.974396,9.685363,3.413178.72168.640564,1.849518,1.754943,1.680848,2.320922-1.440796,4.833741.967346,10.408234-2.822297,14.752716-.647583.742402-1.891327,1.521546-1.433929,2.445801c2.46759,4.986237.708801,10.612793,2.517944,15.645569c1.991761,5.54068,10.293274,9.237702,15.67038,6.860199c2.805115-1.240326,5.174316-1.302734,7.148529,1.173615c1.945282,2.440063,1.674164,4.896331-.33194,7.242462-3.997558,4.67511-3.25238,10.676513-4.291839,16.126831-2.177399,11.417114-3.936035,22.913879-5.893891,34.373291-.266998,1.562683-.055908,3.779815-2.407104,3.695373-2.584046-.092834-2.560547-2.368988-2.352204-4.155395c1.020142-8.74765,2.079133-17.493408,3.323761-26.211365.867859-6.07904,1.951691-12.133209,3.153687-18.155701.508697-2.548706-.242676-4.149749-2.730591-4.181427-5.622131-.071563-10.723053-2.045288-16.052307-4.144989-2.023529,4.549439-.936523,9.033661.465088,12.80542c3.988525,10.733033,4.680267,21.747956,4.39975,32.952362-.160889,6.42807,1.481079,11.788025,7.606506,15.05777c1.404938.74997,2.901062,1.79303,3.338806,3.559296.561127,2.263763,2.358551,2.605408,4.209412,2.829529c22.434082,2.716491,44.914856,5.094421,67.294861,8.199157c27.677734,3.839722,55.188263,8.363221,81.984588,16.928711c24.594422,7.861603,49.28656,15.387268,72.713684,26.302765c31.143982,14.511048,61.272766,30.88855,89.051758,51.291687.268677.197327.539429.391968.804321.594238c6.95221,5.308777,6.635437,5.04303,1.142212,11.585144-8.509399,10.134095-17.821411,19.295472-28.465576,27.186219-3.45581,2.561889-5.577637,2.441955-8.970642-.329834-21.731811-17.753174-45.05835-33.149781-69.979553-46.090332-9.608154-4.989136-19.237061-9.938355-29.209107-15.044373m-224.735839-92.67868c1.937225,5.641479,6.368377,7.139862,11.748077,7.102844c1.825043-.012573,3.655548-.010803,5.475159.110748c6.070312.405457,7.60675-1.314178,6.763092-7.60025-.528595-3.938751-.719117-7.947967-1.578308-11.810608-.970581-4.363556-.28064-9.255707-3.606415-13.331177-4.600067,7.46988-11.25708,12.606079-16.568878,18.937256-1.443634,1.720703-3.643464,3.14444-2.232727,6.591187Z" fill="#1939bd"/><path d="M321.51297,511.560455c-3.236572-.464935-6.091919-1.385101-8.83374-1.12207-8.818024.8461-13.552613-3.546112-16.27713-11.356415-2.664429-7.63797-6.569367-14.843597-8.39267-23.162964c7.504852,0,14.591797-.33197,21.638702.058503c27.810883,1.541015,55.064789,6.798614,82.203827,12.747711c32.152924,7.048187,62.737488,18.680542,93.146851,31.052307c30.638946,12.46521,60.05661,27.24707,88.160003,44.559814c20.290284,12.499573,39.62909,26.43982,56.42157,43.553955c8.072144,8.226746,7.695984,10.456177-2.721985,15.047974-12.191345,5.373474-24.483276,10.475464-37.735473,12.836365-3.299744.587829-5.738281.123718-8.100647-2.288819-15.097046-15.418212-32.207764-28.300537-50.012634-40.435363-18.190552-12.397644-36.712861-24.226075-56.273652-34.268616-23.419036-12.023254-47.802734-22.009766-72.854278-30.003784-24.904755-7.947144-50.517273-13.239441-76.500794-16.507691-1.152862-.144958-2.290191-.413513-3.86795-.710907Z" fill="#1939bd"/><path d="M334.079132,557.900146c-7.602173-9.025817-14.757629-17.937255-20.612427-27.817443c1.615235-2.056092,3.502655-1.311768,5.199616-1.037049c59.748932,9.671082,115.042999,31.518006,166.775299,62.382935c21.112518,12.596313,41.870636,26.041931,59.456329,43.613464c1.643982,1.6427,3.286011,3.341309,4.613404,5.235169c2.342529,3.342163,1.650451,4.683838-2.430848,5.029907-34.182495,2.898437-67.7341.387451-100.383636-11.040405-24.08432-8.429932-45.93634-20.89856-67.105896-34.942932-17.257752-11.449158-32.027435-25.411988-45.511841-41.423646Z" fill="#1939bd"/><path d="M603.965454,274.264832c-4.319214.024871-8.159424.242675-11.972229.01062-7.585693-.46167-12.249939-8.732056-8.424805-14.671601c1.896363-2.944519,4.5766-3.982208,8.053833-3.961013c15.144776.092239,30.295899.260055,45.433899-.079148c8.650818-.193847,17.280396-.18959,25.917908.126572c4.450684.162903,12.575745,8.91011,12.408203,13.293197-.102905,2.689209-2.020752,3.176423-4.122558,3.333924-4.639527.347656-9.280213.827514-13.926575.910705-17.625977.315766-35.272034-.446655-53.367676,1.036744Z" fill="#1939bd"/><path d="M553.07019,229.093842c3.121094-3.225419,6.955567-3.167496,10.524842-3.200592c20.991333-.194642,41.984619-.167588,62.976928-.271424c3.592164-.017776,6.57959,1.206772,8.746094,3.993729c2.729309,3.511001,5.239136,7.192612,8.242005,11.352493-5.051026,2.150574-9.818726,1.886078-14.243897,2.021515-22.640137.692978-45.29364,1.042648-67.944824,1.231598-8.471802.070679-12.609863-7.47081-8.301148-15.127319Z" fill="#1939bd"/><path d="M659.053711,285.125488c8.976074.176148,17.464477.309449,25.949951.547821c5.113648.143647,12.434326,8.385163,12.070801,13.385712-.159851,2.199677-1.784424,2.74469-3.436585,2.927185-2.474853.273315-4.984436.26358-7.480468.307861-17.980347.319062-35.968079-.501922-53.949097.520508-5.376465.305695-10.194275-1.608948-13.629578-6.044281-3.547363-4.580017-1.900634-9.709198,3.643555-11.294739c1.572876-.449859,3.324219-.789611,4.914795-.58023c10.475159,1.378784,20.950989.497253,31.916626.230163Z" fill="#1939bd"/></svg>
