<?xml version="1.0" encoding="utf-8"?>
<svg viewBox="290.711 59.31 520.826 380.969" xmlns="http://www.w3.org/2000/svg">
  <g transform="matrix(0.1, 0, 0, -0.1, 351.266912, 356.636907)" fill="#000000" stroke="none">
    <path d="M -127.046 2902.054 C -100.862 2871.506 1110.15 1265.506 1110.15 1265.506 C 1110.15 1265.506 -527.963 -771.002 -551.297 -771.036 C -574.632 -771.071 -12.846 -771.15 89.088 -771.29 C 89.088 -771.29 1366.709 911.971 1388.529 911.971 C 1405.985 911.971 1842.743 301.063 1842.743 301.063 L 1773.399 -770.584 L 2452.317 -770.606 L 2348.703 459.528 L 501.5 2903.075 C 328.228 2903.019 128.884 2903.647 -127.046 2902.054 Z" style="stroke-dasharray: 2px; fill: rgb(72, 146, 48);"/>
    <path d="M 1855.153 2904.028 L 1856.392 1795.574 L 2348.441 1132.645 L 2348.502 2412.403 L 2908.864 2401.767 C 3340.899 2401.767 3426.203 2360.833 3549.621 2288.705 C 3968.146 2044.112 3995.082 1450.984 3567.077 1188.979 C 3436.862 1109.267 3363.67 1044.279 3020.093 1014.489 C 2861.291 1000.72 2500.008 1009.943 2484.109 1009.977 C 2470.394 1010.006 2461.046 1010.741 2457.613 1010.712 C 2456.336 1010.701 2455.727 1010.91 2455.533 1010.22 C 2455.357 1009.593 2457.072 1007.604 2457.447 1007.152 C 2458.363 1006.048 3917.109 -770.599 3917.109 -770.599 C 4005.912 -770.926 4589.314 -770.978 4565.984 -770.838 C 4542.654 -770.699 3392.84 602.992 3392.84 616.084 C 3392.84 629.176 3567.357 642.677 3680.541 682.756 C 3927.019 770.036 4182.385 1003.277 4287.136 1236.983 C 4397.014 1482.127 4392.048 2034.044 4287.136 2253.793 C 4186.221 2465.17 4005.934 2736.983 3754.655 2803.512 C 3596.134 2845.482 3466.631 2886.428 2724.753 2899.52 C 2794.345 2899.52 1901.878 2904.028 1855.153 2904.028 Z" style="fill: rgb(18, 124, 224);"/>
  </g>
</svg>